<?xml version="1.0" encoding="utf-8"?>
<!-- Generator: Adobe Illustrator 27.1.0, SVG Export Plug-In . SVG Version: 6.00 Build 0)  -->
<svg version="1.1" xmlns="http://www.w3.org/2000/svg" xmlns:xlink="http://www.w3.org/1999/xlink" x="0px" y="0px"
	 viewBox="0 0 1400 1400" style="enable-background:new 0 0 1400 1400;" xml:space="preserve">
<style type="text/css">
	.baggage0{fill-rule:evenodd;clip-rule:evenodd;fill:#1BB6F6;}
	.baggage1{fill-rule:evenodd;clip-rule:evenodd;fill:#2BA0CF;}
	.baggage2{fill-rule:evenodd;clip-rule:evenodd;fill:#5ED0FF;}
	.baggage3{fill-rule:evenodd;clip-rule:evenodd;fill:#1A1A1A;}
	.baggage4{fill-rule:evenodd;clip-rule:evenodd;fill:#FEFEFE;}
	.baggage5{fill-rule:evenodd;clip-rule:evenodd;fill:#F1F1F1;}
	.baggage6{fill-rule:evenodd;clip-rule:evenodd;fill:#D1D1D1;}
	.baggage7{fill-rule:evenodd;clip-rule:evenodd;fill:#DEDEDE;}
</style>
<g id="koffer_00000145018806900213607430000011904070686391762068_">
	<g id="tas_00000087382128202148042520000008191252401776507556_">
		<g id="koffer">
			<g>
				<g>
					<path class="baggage0" d="M750,411.7h411c26.2,0,47.6,21.5,47.6,47.6V1037c0,26.2-21.5,47.6-47.6,47.6H750
						c-26.2,0-47.6-21.4-47.6-47.6V459.4C702.3,433.2,723.8,411.7,750,411.7L750,411.7z"/>
					<path class="baggage1" d="M749,416.7h403.1c25.7,0,46.7,21,46.7,46.7v574.7c0,25.7-21,46.7-46.7,46.7H749c-25.7,0-46.7-21-46.7-46.7
						V463.4C702.3,437.7,723.3,416.7,749,416.7L749,416.7z"/>
					<path class="baggage2" d="M749,411.7h331.1c25.7,0,46.7,21,46.7,46.7V1038c0,25.7-21,46.7-46.7,46.7H749c-25.7,0-46.7-21-46.7-46.7
						V458.5C702.3,432.8,723.3,411.7,749,411.7L749,411.7z"/>
					<path class="baggage0" d="M757.3,416.7h322.8c25.7,0,46.7,21,46.7,46.7v574.7c0,25.7-21,46.7-46.7,46.7H757.3
						c-25.7,0-46.7-21-46.7-46.7V463.4C710.6,437.7,731.6,416.7,757.3,416.7L757.3,416.7z"/>
					<rect x="878.4" y="411.7" class="baggage3" width="72.5" height="38.6"/>
				</g>
				<g>
					<path class="baggage2" d="M753.4,481.3v533.9c0,8.5-12.8,8.5-12.8,0V481.3C740.6,472.8,753.4,472.8,753.4,481.3L753.4,481.3z"/>
					<path class="baggage1" d="M747.4,481.3v533.9c0,8.5-12.9,8.5-12.9,0V481.3C734.5,472.8,747.4,472.8,747.4,481.3L747.4,481.3z"/>
					<path class="baggage2" d="M796.1,481.3v533.9c0,8.5-12.8,8.5-12.8,0V481.3C783.2,472.8,796.1,472.8,796.1,481.3L796.1,481.3z"/>
					<path class="baggage1" d="M790,481.3v533.9c0,8.5-12.8,8.5-12.8,0V481.3C777.2,472.8,790,472.8,790,481.3L790,481.3z"/>
					<path class="baggage2" d="M838.7,481.3v533.9c0,8.5-12.9,8.5-12.9,0V481.3C825.9,472.8,838.7,472.8,838.7,481.3L838.7,481.3z"/>
					<path class="baggage1" d="M832.7,481.3v533.9c0,8.5-12.8,8.5-12.8,0V481.3C819.8,472.8,832.7,472.8,832.7,481.3L832.7,481.3z"/>
					<path class="baggage2" d="M881.4,481.3v533.9c0,8.5-12.8,8.5-12.8,0V481.3C868.5,472.8,881.4,472.8,881.4,481.3L881.4,481.3z"/>
					<path class="baggage1" d="M875.3,481.3v533.9c0,8.5-12.8,8.5-12.8,0V481.3C862.5,472.8,875.3,472.8,875.3,481.3L875.3,481.3z"/>
					<path class="baggage2" d="M924,481.3v533.9c0,8.5-12.8,8.5-12.8,0V481.3C911.2,472.8,924,472.8,924,481.3L924,481.3z"/>
					<path class="baggage1" d="M918,481.3v533.9c0,8.5-12.9,8.5-12.9,0V481.3C905.1,472.8,918,472.8,918,481.3L918,481.3z"/>
					<path class="baggage2" d="M966.7,481.3v533.9c0,8.5-12.8,8.5-12.8,0V481.3C953.9,472.8,966.7,472.8,966.7,481.3L966.7,481.3z"/>
					<path class="baggage1" d="M960.7,481.3v533.9c0,8.5-12.9,8.5-12.9,0V481.3C947.8,472.8,960.7,472.8,960.7,481.3L960.7,481.3z"/>
					<path class="baggage2" d="M1009.4,481.3v533.9c0,8.5-12.9,8.5-12.9,0V481.3C996.5,472.8,1009.4,472.8,1009.4,481.3L1009.4,481.3z"/>
					<path class="baggage1" d="M1003.3,481.3v533.9c0,8.5-12.8,8.5-12.8,0V481.3C990.5,472.8,1003.3,472.8,1003.3,481.3L1003.3,481.3z"/>
					<path class="baggage2" d="M1052,481.3v533.9c0,8.5-12.9,8.5-12.9,0V481.3C1039.2,472.8,1052,472.8,1052,481.3L1052,481.3z"/>
					<path class="baggage1" d="M1046,481.3v533.9c0,8.5-12.8,8.5-12.8,0V481.3C1033.1,472.8,1046,472.8,1046,481.3L1046,481.3z"/>
					<path class="baggage2" d="M1094.7,481.3v533.9c0,8.5-12.8,8.5-12.8,0V481.3C1081.8,472.8,1094.7,472.8,1094.7,481.3L1094.7,481.3z"
						/>
					<path class="baggage1" d="M1088.6,481.3v533.9c0,8.5-12.9,8.5-12.9,0V481.3C1075.8,472.8,1088.6,472.8,1088.6,481.3L1088.6,481.3z"
						/>
				</g>
			</g>
			<g>
				<path class="baggage3" d="M852.6,304.5h229.6c6.2,0,11.2-5.1,11.2-11.3v-12.8c0-6.2-5.1-11.3-11.2-11.3H852.6
					c-6.2,0-11.3,5.1-11.3,11.3v12.8C841.4,299.4,846.4,304.5,852.6,304.5L852.6,304.5z"/>
				<rect x="847" y="323.8" class="baggage4" width="16.3" height="88"/>
				<polygon class="baggage5" points="847,335.9 855.2,335.9 855.2,411.7 863.3,411.7 863.3,323.8 847,323.8 				"/>
				<rect x="1047.7" y="323.8" class="baggage4" width="16.3" height="88"/>
				<polygon class="baggage5" points="1047.7,335.9 1055.8,335.9 1055.8,411.7 1063.9,411.7 1063.9,323.8 1047.7,323.8 				"/>
				<path class="baggage6" d="M829.9,304.5h229.6c6.2,0,11.2-5.1,11.2-11.3v-12.8c0-6.2-5-11.3-11.2-11.3H829.9
					c-6.2,0-11.3,5.1-11.3,11.3v12.8C818.6,299.4,823.7,304.5,829.9,304.5L829.9,304.5z"/>
				<rect x="840.7" y="304.5" class="baggage6" width="29" height="19.3"/>
				<rect x="840.7" y="304.5" class="baggage3" width="29" height="7.6"/>
				<rect x="1041.3" y="304.5" class="baggage6" width="28.9" height="19.3"/>
				<rect x="1041.3" y="304.5" class="baggage3" width="28.9" height="7.6"/>
			</g>
			<g>
				<rect x="750" y="1084.8" class="baggage3" width="402.1" height="16.4"/>
				<path class="baggage3" d="M1131,1101.2c3.2,0,1.4,0,4.6,0c6.6,0,12.1,6.7,12.1,14.8c0,8.2-5.4,14.8-12.1,14.8c-3.2,0-1.4,0-4.6,0
					c-6.7,0-12.1-6.7-12.1-14.8C1118.9,1107.9,1124.3,1101.2,1131,1101.2L1131,1101.2z"/>
				<path class="baggage6" d="M1135.5,1130.9c6.6,0,12.1-6.7,12.1-14.8c0-8.2-5.4-14.8-12.1-14.8s-12.1,6.7-12.1,14.8
					C1123.5,1124.2,1128.9,1130.9,1135.5,1130.9L1135.5,1130.9z"/>
				<path class="baggage3" d="M1135.5,1124.6c3.8,0,6.9-3.8,6.9-8.5s-3.1-8.5-6.9-8.5s-6.9,3.8-6.9,8.5
					C1128.6,1120.7,1131.7,1124.6,1135.5,1124.6L1135.5,1124.6z"/>
				<rect x="1134.8" y="1101.2" class="baggage3" width="17.3" height="14.8"/>
				<path class="baggage3" d="M1147.6,1101.2c3.2,0,1.4,0,4.5,0c6.7,0,12.1,6.7,12.1,14.8c0,8.2-5.4,14.8-12.1,14.8c-3.2,0-1.4,0-4.5,0
					c-6.7,0-12.1-6.7-12.1-14.8C1135.5,1107.9,1140.9,1101.2,1147.6,1101.2L1147.6,1101.2z"/>
				<path class="baggage6" d="M1152.1,1130.9c6.7,0,12.1-6.7,12.1-14.8c0-8.2-5.4-14.8-12.1-14.8s-12.1,6.7-12.1,14.8
					C1140,1124.2,1145.4,1130.9,1152.1,1130.9L1152.1,1130.9z"/>
				<path class="baggage3" d="M1152.1,1124.6c3.8,0,6.9-3.8,6.9-8.5s-3.1-8.5-6.9-8.5s-6.9,3.8-6.9,8.5
					C1145.2,1120.7,1148.3,1124.6,1152.1,1124.6L1152.1,1124.6z"/>
				<path class="baggage3" d="M1069.1,1101.2c3.2,0,1.4,0,4.6,0c6.6,0,12.1,6.7,12.1,14.8c0,8.2-5.4,14.8-12.1,14.8c-3.2,0-1.4,0-4.6,0
					c-6.7,0-12.1-6.7-12.1-14.8C1057,1107.9,1062.4,1101.2,1069.1,1101.2L1069.1,1101.2z"/>
				<path class="baggage6" d="M1073.6,1130.9c6.6,0,12.1-6.7,12.1-14.8c0-8.2-5.4-14.8-12.1-14.8s-12.1,6.7-12.1,14.8
					C1061.5,1124.2,1067,1130.9,1073.6,1130.9L1073.6,1130.9z"/>
				<path class="baggage3" d="M1073.6,1124.6c3.8,0,6.9-3.8,6.9-8.5s-3.1-8.5-6.9-8.5s-6.9,3.8-6.9,8.5
					C1066.7,1120.7,1069.8,1124.6,1073.6,1124.6L1073.6,1124.6z"/>
				<rect x="1072.9" y="1101.2" class="baggage3" width="17.3" height="14.8"/>
				<path class="baggage3" d="M1085.7,1101.2c3.2,0,1.4,0,4.5,0c6.7,0,12.1,6.7,12.1,14.8c0,8.2-5.4,14.8-12.1,14.8c-3.2,0-1.4,0-4.5,0
					c-6.7,0-12.1-6.7-12.1-14.8C1073.6,1107.9,1079,1101.2,1085.7,1101.2L1085.7,1101.2z"/>
				<path class="baggage6" d="M1090.2,1130.9c6.7,0,12.1-6.7,12.1-14.8c0-8.2-5.4-14.8-12.1-14.8c-6.6,0-12.1,6.7-12.1,14.8
					C1078.1,1124.2,1083.5,1130.9,1090.2,1130.9L1090.2,1130.9z"/>
				<path class="baggage3" d="M1090.2,1124.6c3.8,0,6.9-3.8,6.9-8.5s-3.1-8.5-6.9-8.5s-6.9,3.8-6.9,8.5
					C1083.3,1120.7,1086.4,1124.6,1090.2,1124.6L1090.2,1124.6z"/>
				<path class="baggage3" d="M808,1101.2c3.1,0,1.4,0,4.5,0c6.7,0,12.1,6.7,12.1,14.8c0,8.2-5.4,14.8-12.1,14.8c-3.1,0-1.4,0-4.5,0
					c-6.7,0-12.1-6.7-12.1-14.8C796,1107.9,801.4,1101.2,808,1101.2L808,1101.2z"/>
				<path class="baggage6" d="M812.6,1130.9c6.7,0,12.1-6.7,12.1-14.8c0-8.2-5.4-14.8-12.1-14.8s-12.1,6.7-12.1,14.8
					C800.5,1124.2,805.9,1130.9,812.6,1130.9L812.6,1130.9z"/>
				<path class="baggage3" d="M812.6,1124.6c3.8,0,6.9-3.8,6.9-8.5s-3.1-8.5-6.9-8.5c-3.8,0-6.9,3.8-6.9,8.5
					C805.6,1120.7,808.7,1124.6,812.6,1124.6L812.6,1124.6z"/>
				<rect x="811.9" y="1101.2" class="baggage3" width="17.3" height="14.8"/>
				<path class="baggage3" d="M824.6,1101.2c3.2,0,1.4,0,4.6,0c6.6,0,12.1,6.7,12.1,14.8c0,8.2-5.4,14.8-12.1,14.8c-3.2,0-1.4,0-4.6,0
					c-6.7,0-12.1-6.7-12.1-14.8C812.5,1107.9,817.9,1101.2,824.6,1101.2L824.6,1101.2z"/>
				<path class="baggage6" d="M829.2,1130.9c6.6,0,12.1-6.7,12.1-14.8c0-8.2-5.4-14.8-12.1-14.8c-6.7,0-12.1,6.7-12.1,14.8
					C817.1,1124.2,822.5,1130.9,829.2,1130.9L829.2,1130.9z"/>
				<path class="baggage3" d="M829.2,1124.6c3.8,0,6.9-3.8,6.9-8.5s-3.1-8.5-6.9-8.5c-3.8,0-6.9,3.8-6.9,8.5
					C822.2,1120.7,825.3,1124.6,829.2,1124.6L829.2,1124.6z"/>
				<path class="baggage3" d="M746.1,1101.2c3.1,0,1.4,0,4.5,0c6.7,0,12.1,6.7,12.1,14.8c0,8.2-5.4,14.8-12.1,14.8c-3.1,0-1.4,0-4.5,0
					c-6.7,0-12.1-6.7-12.1-14.8C734.1,1107.9,739.4,1101.2,746.1,1101.2L746.1,1101.2z"/>
				<path class="baggage6" d="M750.6,1130.9c6.7,0,12.1-6.7,12.1-14.8c0-8.2-5.4-14.8-12.1-14.8s-12.1,6.7-12.1,14.8
					C738.6,1124.2,744,1130.9,750.6,1130.9L750.6,1130.9z"/>
				<path class="baggage3" d="M750.6,1124.6c3.8,0,6.9-3.8,6.9-8.5s-3.1-8.5-6.9-8.5c-3.8,0-6.9,3.8-6.9,8.5
					C743.7,1120.7,746.8,1124.6,750.6,1124.6L750.6,1124.6z"/>
				<rect x="750" y="1101.2" class="baggage3" width="17.3" height="14.8"/>
				<path class="baggage3" d="M762.7,1101.2c3.2,0,1.4,0,4.5,0c6.7,0,12.1,6.7,12.1,14.8c0,8.2-5.4,14.8-12.1,14.8c-3.1,0-1.4,0-4.5,0
					c-6.6,0-12.1-6.7-12.1-14.8C750.6,1107.9,756,1101.2,762.7,1101.2L762.7,1101.2z"/>
				<path class="baggage6" d="M767.2,1130.9c6.7,0,12.1-6.7,12.1-14.8c0-8.2-5.4-14.8-12.1-14.8c-6.6,0-12.1,6.7-12.1,14.8
					C755.2,1124.2,760.6,1130.9,767.2,1130.9L767.2,1130.9z"/>
				<path class="baggage3" d="M767.2,1124.6c3.8,0,6.9-3.8,6.9-8.5s-3.1-8.5-6.9-8.5c-3.8,0-6.9,3.8-6.9,8.5
					C760.3,1120.7,763.4,1124.6,767.2,1124.6L767.2,1124.6z"/>
				<rect x="750" y="1084.8" class="baggage6" width="313.4" height="16.4"/>
			</g>
		</g>
	</g>
</g>
<g id="tas_00000088133449855919248060000006529279260686427311_">
	<g id="koffer_00000106841358286303899060000010270618334172166550_">
		<g id="tas">
			<path class="baggage0" d="M281.8,836.5h409.8c38.1,68.7,75.5,244.3,45.6,289.5H241.4C200.3,1103.3,242.4,915.2,281.8,836.5
				L281.8,836.5z"/>
			<path class="baggage1" d="M383.2,842.3h308.4c38.1,68.7,75.5,250.1,45.6,283.7H362.5C324.5,1109,360.1,921.6,383.2,842.3L383.2,842.3z
				"/>
			<path class="baggage0" d="M348.8,809.5h275.6c25.6,6.4,27.3,22.7,30.6,26.9H321.6C322.1,830.7,322.4,816.9,348.8,809.5L348.8,809.5z"
				/>
			<path class="baggage1" d="M417,815.4h207.3c25.6,6.4,27.3,17.3,30.6,21.1H403.1C400.8,829.7,401.5,822.8,417,815.4L417,815.4z"/>
			<path class="baggage3" d="M451.7,897h224.4c20.5,37.1,27.1,118.8,71.5,162.1c0.5,9.9,0.6,19.2,0.2,27.5c-0.1-1.1-0.1-2.1-0.2-3.2
				c-44.3-43.3-56.6-136.9-77.2-174H466.2c-11.8,55.2-46.5,147.8-119.4,179.8c-0.7-7.2-1-15.2-1-23.8
				C419.5,1033.8,438.3,943.1,451.7,897L451.7,897z"/>
			<path class="baggage0" d="M473.7,914.6h199.4c-0.9-1.8-1.8-3.5-2.7-5.2H466.2c-11.1,52-42.6,137.1-107,173.6
				C414.6,1055.1,455.9,1001.2,473.7,914.6L473.7,914.6z"/>
			<path class="baggage3" d="M545.2,955h73c4.3,0,7.8,3.5,7.8,7.8v17.6c0,4.3-3.5,7.7-7.8,7.7h-73c-4.3,0-7.8-3.5-7.8-7.7v-17.6
				C537.4,958.5,540.9,955,545.2,955L545.2,955z"/>
			<path class="baggage6" d="M548.3,959.7H615c3.1,0,5.6,2.5,5.6,5.6V978c0,3.1-2.5,5.6-5.6,5.6h-66.7c-3.1,0-5.6-2.5-5.6-5.6v-12.7
				C542.7,962.2,545.2,959.7,548.3,959.7L548.3,959.7z"/>
			<path class="st7" d="M581.7,979.6c11.7,0,21.2-3.4,21.2-7.6c0-4.2-9.5-7.6-21.2-7.6s-21.2,3.4-21.2,7.6
				C560.4,976.2,570,979.6,581.7,979.6L581.7,979.6z"/>
			<polygon class="baggage6" points="288.7,849 360.2,849 353.3,879.5 281.8,879.5 			"/>
			<path class="baggage3" d="M279,899.8c-8.4-0.8-5.4-10.8-4.6-16.5c1-7,4.6-11.6,9.3-12.2l2.5-10.7c-9.9,1.2-16.1,13.4-18.8,23
				c-4,14.3-0.2,26.2,9,26.2h65c16.6-0.2,24.9-18.7,27-31.9c1.9-11.6-1.6-18.3-10.4-18.6l-2.6,11.2c6.1-0.1,6,6.8,5.2,10.6
				c-2.6,11.9-8.3,20.4-17.1,20.2L279,899.8z"/>
			<path class="baggage6" d="M280,896.1h64.7c-22.5,97-72.4,166-123.8,189.5c-16-7.2-28.1-30.6-29.5-41.9
				C238.7,1012.9,258,980.7,280,896.1L280,896.1z"/>
		</g>
	</g>
</g>
</svg>
