<?xml version="1.0" encoding="utf-8"?>
<!-- Generator: Adobe Illustrator 27.1.0, SVG Export Plug-In . SVG Version: 6.00 Build 0)  -->
<svg version="1.1" xmlns="http://www.w3.org/2000/svg" xmlns:xlink="http://www.w3.org/1999/xlink" x="0px" y="0px"
	 viewBox="0 0 1400 1400" style="enable-background:new 0 0 1400 1400;" xml:space="preserve">
<style type="text/css">
	.st0{fill:#E37222;}
	.st1{fill:#003145;}
	.st2{fill:#01A1DE;}
	.st3{fill:#FFFFFF;}
</style>
<g id="koffer_00000145018806900213607430000011904070686391762068_">
	<path class="st0" d="M1164.2,432.8L242.7,567L106.3,840.2l244,234l913.7-156L1164.2,432.8z M246.1,887.3
		c-28.5-5.6-47-33.1-41.5-61.6c5.6-28.5,33.1-47,61.6-41.5c28.5,5.6,47,33.1,41.5,61.6C302.1,874.2,274.5,892.8,246.1,887.3z"/>
	<path class="st1" d="M1129.7,349L221.8,556.7L107.9,840l262,213.6l898.2-228.8L1129.7,349z M250.9,875.7
		c-28.8-3.3-49.6-29.3-46.3-58.1c3.3-28.8,29.3-49.6,58.1-46.3c28.8,3.3,49.6,29.3,46.3,58.1C305.7,858.2,279.7,878.9,250.9,875.7z"
		/>
	<g>
		<path class="st2" d="M1048.4,250.9L169.5,559.1L88,853.3l284.3,182.9l866.9-328.1L1048.4,250.9z M234.2,872.8
			c-29,0-52.5-23.5-52.5-52.5c0-29,23.5-52.5,52.5-52.5c29,0,52.5,23.5,52.5,52.5C286.7,849.2,263.2,872.8,234.2,872.8z"/>
		<g>
			<path class="st3" d="M826.9,528.1c-32.7,12.9-72-0.1-85.8-35.1c-14.3-36.3,6.4-71.9,38.7-84.6c32.7-12.9,71.9-1.4,86.4,35.4
				C879.9,478.7,858.3,515.7,826.9,528.1z M787.4,427.7c-22,8.6-33.3,31.2-23.9,55c9.4,23.7,33.2,33,55.1,24.4
				c22-8.6,33.5-31.8,24.2-55.6C833.6,428.1,809.3,419.1,787.4,427.7z M912.9,716.3c-0.7,3.4-1.9,7-5.5,8.4l-14.4,5.6
				c-2.2,0.9-4.1,0.1-4.8-1.7c-0.4-0.9-0.4-2.4,0.1-3.7L946,338.9c0.5-2.8,0.8-4.5,4.9-6.1l16.1-6.4c0.9-0.3,2.3,0.7,2.8,2
				c0.3,0.9,0.3,2,0.2,3L912.9,716.3z M1088.7,655.4c-31.4,12.3-72.6-0.4-86.4-35.4c-14.1-35.9,7.9-72,39.3-84.3
				c30.9-12.2,71.5-1.2,85.7,35.1C1141.1,605.8,1118.7,643.6,1088.7,655.4z M1049,554.5c-22.4,8.8-33.6,31.8-24.2,55.6
				c9.2,23.3,33.2,33,55.6,24.2c22-8.6,32.9-32.1,23.7-55.4C1095,555.6,1071,545.9,1049,554.5z"/>
		</g>
	</g>
</g>
<g id="tas_00000088133449855919248060000006529279260686427311_">
</g>
</svg>
