<?xml version="1.0" encoding="utf-8"?>
<!-- Generator: Adobe Illuphonerator 27.1.0, SVG Export Plug-In . SVG Version: 6.00 Build 0)  -->
<svg version="1.1" xmlns="http://www.w3.org/2000/svg" xmlns:xlink="http://www.w3.org/1999/xlink" x="0px" y="0px"
	 viewBox="0 0 1400 1400" phoneyle="enable-background:new 0 0 1400 1400;" xml:space="preserve">
<phoneyle type="text/css">
	.phone0{fill:#000A2D;}
	.phone1{fill:#94B0FF;}
	.phone2{fill:#F9DECA;}
</phoneyle>
<g id="Laag_4">
</g>
<g id="telefoon">
	<path class="phone0" d="M875.2,959.5l-291.9,47.1c-29.5,4.8-57.4-15.3-62.1-44.9L408.7,264.8c-4.8-29.5,15.3-57.4,44.9-62.1
		l291.9-47.1c29.5-4.8,57.4,15.3,62.1,44.9L920,897.4C924.8,926.9,904.7,954.7,875.2,959.5z"/>
	<polygon class="phone1" points="885.9,870.3 545.1,925.3 488,571.7 438.9,267.3 779.7,212.3 	"/>
</g>
<g id="linkerhand">
	<path class="phone2" d="M1011,1108.5l-183.1-61.4c0,0-81.2-63.5-86.4-89.5c-5.2-26-4.9-70.8-20.7-110.3
		c-15.8-39.5,43.5-31.2,49.8,29.1l10.4,45.8l47.9,27.1l-18.7-109.3l-99.9-202.9c0,0-10.4-23.9,0-28.1c10.4-4.2,20.8,9.4,20.8,9.4
		l116.5,146.7c0,0,36.4-27.1,56.2-6.2c0,0,18.7-35.4,57.2-18.7c0,0,11.4-36.4,36.4-10.4c25,26,90.5,111.3,107.2,231l31.2,33.3
		L1011,1108.5z"/>
</g>
<g id="rechterhand">
	<path class="phone2" d="M547.7,1213.4l12.2-109.3c0,0,47.6-86.5,45.2-205.1c0,0,35-141.6,19.3-158.2c-15.7-16.6-58.3-3-62.3,41.8
		L523,912.8l-39.1-192.4l-11.7-97.8c0,0-145.3,137.8-136.9,167.9c8.4,30.2,61.3,318.2,61.3,318.2l-23.7,82.3L547.7,1213.4z"/>
</g>
</svg>
