<?xml version="1.0" encoding="utf-8"?>
<!-- Generator: Adobe Illustrator 27.1.0, SVG Export Plug-In . SVG Version: 6.00 Build 0)  -->
<svg version="1.1" xmlns="http://www.w3.org/2000/svg" xmlns:xlink="http://www.w3.org/1999/xlink" x="0px" y="0px"
	 viewBox="0 0 1400 1400" style="enable-background:new 0 0 1400 1400;" xml:space="preserve">
<g id="ticket2_00000160168640809491979920000016490986502977525891_">
	<g id="ticket2">
		<path class="tick0" d="M70.7,618.7l-1.1,84.2l-4.2,308.7c-0.4,31,15.1,47,46.1,47.4l749.3,10.1c0,0,10.1,0.1,18.9-10.1
			c3.2-3.7,11.8-15.8,11.8-15.8s8.8,12.2,11.5,16.4c7.1,11.1,18.5,10.3,18.5,10.3l283.5,3.8c31,0.4,47-15.2,47.4-46.1l4.2-308.7
			l1.1-84.2c0.4-31-24.4-56.5-55.4-56.9l-274.8-3.7l-30.9,35.3L867,573.3l-739.4-10C96.6,562.9,71.1,587.7,70.7,618.7z"/>
		<g>
			<path class="tick1" d="M1127.1,947.1c0,0,0.1-10.1,0.1-10.6c0-1.3-0.8-1.7-0.8-1.7l-41.9-24.2l-11.6,24.9L1127.1,947.1z"/>
			<path class="tick1" d="M1028.4,935.1c0,0.5-0.1,10.6-0.1,10.6l54.4-10.1l-10.9-25.2l-42.6,23.1
				C1029.2,933.5,1028.4,933.9,1028.4,935.1z"/>
			<path class="tick1" d="M1058.9,754c-0.3,25.4,10.4,176.2,10.4,176.2l8.3,21.6l8.9-21.4c0,0,14.8-150.4,15.2-175.8
				c0.3-25.4-9.5-50.8-20.7-51C1069.7,703.5,1059.2,728.6,1058.9,754z"/>
			<g>
				<path class="tick1" d="M940,849.8c0,1.3-0.1,11.3-0.1,11.3l151.8-32l-27.9-54l-121.7,71.8C942.1,846.9,940,848.6,940,849.8z"/>
				<path class="tick1" d="M1024.2,804.1c7.4,0.1,7-23,7-23l-13.5-0.2C1017.8,780.9,1016.8,804,1024.2,804.1z"/>
				<path class="tick1" d="M991.8,823.4c7.4,0.1,7-23,7-23l-13.5-0.2C985.4,800.1,984.4,823.3,991.8,823.4z"/>
			</g>
			<g>
				<path class="tick1" d="M1217.8,864.9c0,0,0.1-10.1,0.2-11.3c0-1.3-2-2.9-2-2.9l-119.7-75.1l-29.3,53.3L1217.8,864.9z"/>
				<path class="tick1" d="M1135,805.6c7.4,0.1,7-23,7-23l-13.4-0.2C1128.6,782.4,1127.6,805.5,1135,805.6z"/>
				<path class="tick1" d="M1166.9,825.7c7.4,0.1,7-23,7-23l-13.5-0.2C1160.5,802.5,1159.6,825.6,1166.9,825.7z"/>
			</g>
		</g>
		<path class="tick1" d="M70.3,609.3l-0.6,46.8l1187.2,16l0.6-46.8c0.4-31-15.2-47-46.1-47.4l-283.5-3.8c0,0-10.4-0.1-18.3,8.7
			C904.7,588.4,897,600,897,600s-7.5-11.9-12.1-17.7c-7-8.8-17.9-9-17.9-9l-749.3-10.1C86.7,562.8,70.7,578.3,70.3,609.3z"/>
		<g>
			<g>
				<g>
					<line class="tick2" x1="896.9" y1="609.4" x2="896.8" y2="619.5"/>
					<line class="tick3" x1="896.5" y1="638.8" x2="891.5" y2="1014.2"/>
					<line class="tick2" x1="891.3" y1="1023.8" x2="891.2" y2="1033.9"/>
				</g>
			</g>
		</g>
		
			<rect x="235" y="595.2" transform="matrix(1.351024e-02 -0.9999 0.9999 1.351024e-02 -479.3247 977.2995)" class="tick4" width="41.2" height="272.6"/>
		
			<rect x="232.5" y="782.3" transform="matrix(1.351024e-02 -0.9999 0.9999 1.351024e-02 -668.8468 1159.292)" class="tick4" width="41.2" height="272.6"/>
		
			<rect x="556.2" y="780.8" transform="matrix(1.357925e-02 -0.9999 0.9999 1.357925e-02 -353.935 1487.21)" class="tick4" width="41.2" height="284.4"/>
		
			<rect x="555.3" y="850" transform="matrix(1.344123e-02 -0.9999 0.9999 1.344123e-02 -424.0458 1554.7473)" class="tick4" width="41.2" height="284.4"/>
		<polygon class="tick4" points="390.2,1010.3 390.7,969.2 118.1,965.5 117.5,1006.7 		"/>
		
			<rect x="398.9" y="500.7" transform="matrix(1.340826e-02 -0.9999 0.9999 1.340826e-02 -387.8908 1210.5696)" class="tick4" width="41.2" height="602.3"/>
		<g>
			
				<rect x="800.7" y="662.9" transform="matrix(1.372709e-02 -0.9999 0.9999 1.372709e-02 94.0646 1500.9103)" class="tick5" width="14.3" height="79.7"/>
			
				<rect x="803.7" y="683.9" transform="matrix(1.361634e-02 -0.9999 0.9999 1.361634e-02 72.948 1521.3527)" class="tick5" width="7.7" height="79.7"/>
			
				<rect x="805.2" y="695.8" transform="matrix(1.413988e-02 -0.9999 0.9999 1.413988e-02 60.4676 1532.5447)" class="tick5" width="4.5" height="79.7"/>
			
				<rect x="796.4" y="714.1" transform="matrix(1.341491e-02 -0.9999 0.9999 1.341491e-02 42.4227 1550.9716)" class="tick5" width="21.5" height="79.7"/>
			
				<rect x="804.7" y="729.6" transform="matrix(1.382446e-02 -0.9999 0.9999 1.382446e-02 26.4001 1565.7213)" class="tick5" width="4.5" height="79.7"/>
			
				<rect x="805" y="739.5" transform="matrix(1.274048e-02 -0.9999 0.9999 1.274048e-02 17.2194 1576.2212)" class="tick5" width="3.7" height="79.7"/>
			
				<rect x="805.3" y="746.2" transform="matrix(1.479558e-02 -0.9999 0.9999 1.479558e-02 8.8929 1581.0171)" class="tick5" width="2.9" height="79.7"/>
			
				<rect x="803.7" y="755.4" transform="matrix(1.414704e-02 -0.9999 0.9999 1.414704e-02 -8.072446e-03 1590.5668)" class="tick5" width="5.8" height="79.7"/>
			
				<rect x="801.5" y="767" transform="matrix(1.379492e-02 -0.9999 0.9999 1.379492e-02 -11.4477 1602.1034)" class="tick5" width="9.9" height="79.7"/>
			
				<rect x="804" y="779.2" transform="matrix(1.350983e-02 -0.9999 0.9999 1.350983e-02 -23.5662 1614.1901)" class="tick5" width="4.5" height="79.7"/>
			
				<rect x="804.3" y="789.1" transform="matrix(1.349048e-02 -0.9999 0.9999 1.349048e-02 -33.5938 1623.8512)" class="tick5" width="3.7" height="79.7"/>
			
				<rect x="800" y="802.7" transform="matrix(1.363206e-02 -0.9999 0.9999 1.363206e-02 -47.5134 1636.9882)" class="tick5" width="12" height="79.7"/>
			
				<rect x="802.3" y="816.4" transform="matrix(1.476663e-02 -0.9999 0.9999 1.476663e-02 -62.228 1649.2671)" class="tick5" width="7" height="79.7"/>
			
				<rect x="800.8" y="831.2" transform="matrix(1.359642e-02 -0.9999 0.9999 1.359642e-02 -76.3659 1664.7518)" class="tick5" width="9.5" height="79.7"/>
			<polygon class="tick5" points="845.2,886.7 845.3,883 765.6,881.9 765.5,885.6 			"/>
			
				<rect x="803.9" y="851.1" transform="matrix(1.292892e-02 -0.9999 0.9999 1.292892e-02 -95.9191 1684.6366)" class="tick5" width="2.9" height="79.7"/>
			
				<rect x="802.3" y="860.4" transform="matrix(1.394834e-02 -0.9999 0.9999 1.394834e-02 -106.1443 1692.7589)" class="tick5" width="5.8" height="79.7"/>
			
				<rect x="802.2" y="947.7" transform="matrix(1.426892e-02 -0.9999 0.9999 1.426892e-02 -194.9073 1777.3953)" class="tick5" width="3.7" height="79.7"/>
			
				<rect x="797.8" y="961.3" transform="matrix(1.315171e-02 -0.9999 0.9999 1.315171e-02 -207.842 1791.7787)" class="tick5" width="12" height="79.7"/>
			
				<rect x="800.1" y="975" transform="matrix(1.338240e-02 -0.9999 0.9999 1.338240e-02 -221.8288 1804.8041)" class="tick5" width="7" height="79.7"/>
			
				<rect x="798.7" y="989.8" transform="matrix(1.344588e-02 -0.9999 0.9999 1.344588e-02 -236.9403 1819.202)" class="tick5" width="9.5" height="79.7"/>
			
				<rect x="800.1" y="871.9" transform="matrix(1.368641e-02 -0.9999 0.9999 1.368641e-02 -117.6529 1704.2419)" class="tick5" width="9.9" height="79.7"/>
			
				<rect x="802.6" y="884.1" transform="matrix(1.382446e-02 -0.9999 0.9999 1.382446e-02 -130.1085 1715.9659)" class="tick5" width="4.5" height="79.7"/>
			
				<rect x="802.9" y="894" transform="matrix(1.421181e-02 -0.9999 0.9999 1.421181e-02 -140.4608 1725.2422)" class="tick5" width="3.7" height="79.7"/>
			
				<rect x="798.6" y="907.6" transform="matrix(1.315171e-02 -0.9999 0.9999 1.315171e-02 -153.4357 1739.5137)" class="tick5" width="12" height="79.7"/>
			
				<rect x="800.9" y="921.3" transform="matrix(1.357604e-02 -0.9999 0.9999 1.357604e-02 -167.5764 1752.3677)" class="tick5" width="7" height="79.7"/>
			
				<rect x="799.4" y="936.1" transform="matrix(1.374714e-02 -0.9999 0.9999 1.374714e-02 -182.7769 1766.6622)" class="tick5" width="9.5" height="79.7"/>
		</g>
		<g>
			
				<rect x="942.5" y="1010.9" transform="matrix(1.360129e-02 -0.9999 0.9999 1.360129e-02 -62.1547 1968.6659)" class="tick5" width="48.4" height="9.9"/>
			
				<rect x="957" y="1013.4" transform="matrix(1.336665e-02 -0.9999 0.9999 1.336665e-02 -47.829 1983.5927)" class="tick5" width="48.4" height="5.3"/>
			
				<rect x="965.3" y="1014.6" transform="matrix(1.351350e-02 -0.9999 0.9999 1.351350e-02 -39.9478 1991.7938)" class="tick5" width="48.4" height="3.1"/>
			
				<rect x="978" y="1008.9" transform="matrix(1.363082e-02 -0.9999 0.9999 1.363082e-02 -27.6832 2004.5664)" class="tick5" width="48.4" height="14.9"/>
			
				<rect x="988.7" y="1014.9" transform="matrix(1.348398e-02 -0.9999 0.9999 1.348398e-02 -17.1045 2015.5812)" class="tick5" width="48.4" height="3.1"/>
			
				<rect x="995.6" y="1015.3" transform="matrix(1.336665e-02 -0.9999 0.9999 1.336665e-02 -10.3032 2022.6609)" class="tick5" width="48.4" height="2.6"/>
			
				<rect x="1000.1" y="1015.6" transform="matrix(1.351350e-02 -0.9999 0.9999 1.351350e-02 -6.0068 2027.1428)" class="tick5" width="48.4" height="2"/>
			
				<rect x="1006.6" y="1014.7" transform="matrix(1.348545e-02 -0.9999 0.9999 1.348545e-02 0.2811 2033.6899)" class="tick5" width="48.4" height="4"/>
			
				<rect x="1014.6" y="1013.4" transform="matrix(1.348545e-02 -0.9999 0.9999 1.348545e-02 8.0729 2041.8025)" class="tick5" width="48.4" height="6.9"/>
			
				<rect x="1023" y="1015.3" transform="matrix(1.340203e-02 -0.9999 0.9999 1.340203e-02 16.3689 2050.436)" class="tick5" width="48.4" height="3.1"/>
			
				<rect x="1029.9" y="1015.7" transform="matrix(1.348398e-02 -0.9999 0.9999 1.348398e-02 22.9627 2057.3027)" class="tick5" width="48.4" height="2.6"/>
			
				<rect x="1039.3" y="1013" transform="matrix(1.359690e-02 -0.9999 0.9999 1.359690e-02 32.0227 2066.7473)" class="tick5" width="48.4" height="8.3"/>
			
				<rect x="1048.7" y="1014.8" transform="matrix(1.348545e-02 -0.9999 0.9999 1.348545e-02 41.323 2076.4268)" class="tick5" width="48.4" height="4.9"/>
			
				<rect x="1059" y="1014.1" transform="matrix(1.351350e-02 -0.9999 0.9999 1.351350e-02 51.3101 2086.8279)" class="tick5" width="48.4" height="6.6"/>
			
				<rect x="1068.2" y="1016.2" transform="matrix(1.351350e-02 -0.9999 0.9999 1.351350e-02 60.2122 2096.1025)" class="tick5" width="48.4" height="2.6"/>
			<polygon class="tick5" points="1097.7,1041.8 1098.3,993.4 1096.3,993.4 1095.7,1041.8 			"/>
			
				<rect x="1079.2" y="1015.7" transform="matrix(1.348545e-02 -0.9999 0.9999 1.348545e-02 70.9571 2107.2847)" class="tick5" width="48.4" height="4"/>
			
				<rect x="1139.7" y="1017.2" transform="matrix(1.348398e-02 -0.9999 0.9999 1.348398e-02 129.8002 2168.562)" class="tick5" width="48.4" height="2.6"/>
			<polygon class="tick5" points="1177.2,1042.9 1177.8,994.5 1169.5,994.4 1168.9,1042.8 			"/>
			<polygon class="tick5" points="1184.9,1043 1185.5,994.6 1180.7,994.5 1180,1042.9 			"/>
			
				<rect x="1168.8" y="1015.6" transform="matrix(1.351350e-02 -0.9999 0.9999 1.351350e-02 158.148 2198.0847)" class="tick5" width="48.4" height="6.6"/>
			
				<rect x="1087.2" y="1014.4" transform="matrix(1.348398e-02 -0.9999 0.9999 1.348398e-02 78.743 2115.3918)" class="tick5" width="48.4" height="6.9"/>
			
				<rect x="1095.6" y="1016.3" transform="matrix(1.363082e-02 -0.9999 0.9999 1.363082e-02 86.7928 2123.7913)" class="tick5" width="48.4" height="3.1"/>
			
				<rect x="1102.5" y="1016.7" transform="matrix(1.337252e-02 -0.9999 0.9999 1.337252e-02 93.7541 2131.0117)" class="tick5" width="48.4" height="2.6"/>
			<polygon class="tick5" points="1140,1042.4 1140.6,994 1132.3,993.8 1131.7,1042.3 			"/>
			
				<rect x="1121.4" y="1015.8" transform="matrix(1.348398e-02 -0.9999 0.9999 1.348398e-02 111.9957 2150.02)" class="tick5" width="48.4" height="4.9"/>
			
				<rect x="1131.7" y="1015.1" transform="matrix(1.351350e-02 -0.9999 0.9999 1.351350e-02 121.9807 2160.4204)" class="tick5" width="48.4" height="6.6"/>
		</g>
		<path class="tick4" d="M775.9,618.5c-0.3,18.3,14.4,33.3,32.7,33.6c18.3,0.2,33.3-14.4,33.6-32.7c0.3-18.3-14.4-33.3-32.7-33.6
			C791.1,585.6,776.1,600.2,775.9,618.5z"/>
		<g>
			<path class="tick1" d="M787.3,628.9c0.3,0,0.3-0.2,0.3-0.2l5-8.7l-5.1-2.4l-2.4,11.2C785.1,628.9,787.2,628.9,787.3,628.9z"/>
			<path class="tick1" d="M792.6,617.4l-4.8-8.8c0,0-0.1-0.2-0.3-0.2c-0.1,0-2.2,0-2.2,0l2.1,11.2L792.6,617.4z"/>
			<path class="tick1" d="M788.5,620.5c0,0,31,3.1,36.3,3.1c5.2,0.1,10.5-2,10.5-4.3c0-2.3-5.2-4.5-10.4-4.6
				c-5.3-0.1-36.4,2.2-36.4,2.2l-4.5,1.7L788.5,620.5z"/>
			<g>
				<path class="tick1" d="M820.6,615.8l-14.8-25.1c0,0-0.3-0.4-0.6-0.4c-0.3,0-2.3,0-2.3,0l6.6,31.3L820.6,615.8z"/>
				<path class="tick1" d="M814.6,607.6c0,1.5,4.8,1.5,4.8,1.5l0-2.8C819.4,606.3,814.6,606.1,814.6,607.6z"/>
				<path class="tick1" d="M810.6,600.9c0,1.5,4.8,1.5,4.8,1.5l0-2.8C815.4,599.6,810.6,599.4,810.6,600.9z"/>
			</g>
			<g>
				<path class="tick1" d="M804.4,647.6c0.3,0,0.6-0.4,0.6-0.4l15.5-24.7l-11-6.1l-7.5,31.1C802,647.6,804.1,647.6,804.4,647.6z"/>
				<path class="tick1" d="M814.3,630.5c0,1.5,4.8,1.4,4.8,1.4l0-2.8C819.1,629.2,814.3,629,814.3,630.5z"/>
				<path class="tick1" d="M810.1,637.1c0,1.5,4.8,1.5,4.8,1.5l0-2.8C814.9,635.7,810.2,635.5,810.1,637.1z"/>
			</g>
		</g>
		<line class="tick6" x1="119.6" y1="856.3" x2="719.8" y2="864.4"/>
		
			<rect x="558.7" y="593.7" transform="matrix(1.344297e-02 -0.9999 0.9999 1.344297e-02 -164.3354 1305.3341)" class="tick4" width="41.2" height="284.4"/>
	</g>
</g>
<g id="ticket1_00000146466208833273888260000006552027244816950699_">
	<g id="ticket1_00000176765695628182255900000006471209563345088172_">
		<path class="tick0" d="M96.1,686l16.3,82.6l59.7,302.9c6,30.4,24.5,42.9,54.9,36.9l735.2-144.9c0,0,9.9-1.9,16.4-13.8
			c2.4-4.3,8.3-17.9,8.3-17.9s11.1,10.1,14.7,13.7c9.3,9.4,20.3,6.3,20.3,6.3l278.2-54.8c30.4-6,42.8-24.5,36.9-54.9l-59.7-302.9
			l-16.3-82.6c-6-30.4-35.5-50.2-65.9-44.2l-269.6,53.1l-22.9,40.9L865.8,477L140.3,620C109.9,626,90.1,655.6,96.1,686z"/>
		<g>
			<path class="tick1" d="M1197.6,788.9c0,0-2-9.9-2-10.4c-0.3-1.3-1.1-1.5-1.1-1.5l-46-15l-6.2,26.8L1197.6,788.9z"/>
			<path class="tick1" d="M1098.5,797.7c0.1,0.5,2,10.4,2,10.4l51.2-21.1l-15.9-22.4l-36.9,31.4C1099,795.9,1098.3,796.5,1098.5,797.7
				z"/>
			<path class="tick1" d="M1090.9,614.2c4.9,24.9,46.6,170.2,46.6,170.2l12.6,19.5l4.3-22.8c0,0-16.6-150.2-21.5-175.2
				c-4.9-24.9-19.8-47.8-30.8-45.6C1091,562.5,1086,589.2,1090.9,614.2z"/>
			<g>
				<path class="tick1" d="M994.3,732.5c0.3,1.2,2.2,11.1,2.2,11.1l141.9-62.7l-38.4-47.1l-104.2,95.4
					C995.8,729.2,994.1,731.2,994.3,732.5z"/>
				<path class="tick1" d="M1067.3,670.3c7.2-1.4,2.1-24,2.1-24l-13.2,2.6C1056.2,648.9,1060.1,671.8,1067.3,670.3z"/>
				<path class="tick1" d="M1039.5,695.9c7.2-1.4,2.1-24,2.1-24l-13.2,2.6C1028.5,674.5,1032.3,697.3,1039.5,695.9z"/>
			</g>
			<g>
				<path class="tick1" d="M1269.3,689.8c0,0-1.9-9.9-2.2-11.1c-0.2-1.2-2.6-2.5-2.6-2.5l-132.6-48.7l-17.7,58.2L1269.3,689.8z"/>
				<path class="tick1" d="M1176,648.9c7.2-1.4,2.1-24,2.1-24l-13.2,2.6C1165,627.5,1168.8,650.3,1176,648.9z"/>
				<path class="tick1" d="M1211.4,662c7.2-1.4,2.1-24,2.1-24l-13.2,2.6C1200.3,640.6,1204.2,663.4,1211.4,662z"/>
			</g>
		</g>
		<path class="tick1" d="M93.7,676.9l9,45.9l1164.9-229.6l-9-45.9c-6-30.4-24.5-42.8-54.9-36.8l-278.2,54.8c0,0-10.2,2-16.1,12.3
			c-3.6,6.4-8.7,19.4-8.7,19.4s-9.8-10.1-15.5-14.9c-8.7-7.2-19.4-5.1-19.4-5.1L130.6,622C100.1,628,87.7,646.5,93.7,676.9z"/>
		<g>
			<g>
				<g>
					<line class="tick2" x1="902.5" y1="506.1" x2="904.5" y2="516.1"/>
					<line class="tick3" x1="908.2" y1="534.9" x2="980.8" y2="903.3"/>
					<line class="tick2" x1="982.7" y1="912.7" x2="984.6" y2="922.6"/>
				</g>
			</g>
		</g>
		
			<rect x="164" y="737.6" transform="matrix(0.9811 -0.1934 0.1934 0.9811 -140.9702 72.4011)" class="tick4" width="272.6" height="41.2"/>
		
			<rect x="200.2" y="921.1" transform="matrix(0.9811 -0.1934 0.1934 0.9811 -175.7838 82.8641)" class="tick4" width="272.6" height="41.2"/>
		
			<rect x="511.9" y="858.5" transform="matrix(0.9811 -0.1933 0.1933 0.9811 -157.626 143.0556)" class="tick4" width="284.4" height="41.2"/>
		
			<rect x="525.3" y="926.5" transform="matrix(0.9811 -0.1935 0.1935 0.9811 -170.6253 147.0449)" class="tick4" width="284.4" height="41.2"/>
		<polygon class="tick4" points="489.6,1003.1 481.6,962.7 214.1,1015.5 222.1,1055.9 		"/>
		
			<rect x="174" y="772.5" transform="matrix(0.9811 -0.1935 0.1935 0.9811 -144.4874 106.943)" class="tick4" width="602.3" height="41.2"/>
		<g>
			
				<rect x="794.8" y="608.7" transform="matrix(0.9812 -0.1932 0.1932 0.9812 -103.2634 172.8605)" class="tick5" width="79.7" height="14.3"/>
			
				<rect x="798.9" y="632.6" transform="matrix(0.9811 -0.1933 0.1933 0.9811 -107.2057 174.1346)" class="tick5" width="79.7" height="7.7"/>
			
				<rect x="801.2" y="645.8" transform="matrix(0.9812 -0.1928 0.1928 0.9812 -109.1725 174.3025)" class="tick5" width="79.7" height="4.5"/>
			
				<rect x="804.7" y="655.4" transform="matrix(0.9811 -0.1935 0.1935 0.9811 -112.9384 176.0205)" class="tick5" width="79.7" height="21.5"/>
			
				<rect x="807.7" y="679.1" transform="matrix(0.9812 -0.1931 0.1931 0.9812 -115.616 176.4924)" class="tick5" width="79.7" height="4.5"/>
			
				<rect x="809.7" y="689.2" transform="matrix(0.981 -0.1942 0.1942 0.981 -118.0149 178.0945)" class="tick5" width="79.7" height="3.7"/>
			
				<rect x="810.9" y="696.1" transform="matrix(0.9814 -0.1921 0.1921 0.9814 -118.18 176.4737)" class="tick5" width="79.7" height="2.9"/>
			
				<rect x="812.7" y="703.8" transform="matrix(0.9812 -0.1928 0.1928 0.9812 -120.2418 177.6194)" class="tick5" width="79.7" height="5.8"/>
			
				<rect x="815" y="713.1" transform="matrix(0.9812 -0.1931 0.1931 0.9812 -122.5779 178.608)" class="tick5" width="79.7" height="9.9"/>
			
				<rect x="817.3" y="727.7" transform="matrix(0.9811 -0.1934 0.1934 0.9811 -124.9993 179.5681)" class="tick5" width="79.7" height="4.5"/>
			
				<rect x="819.2" y="737.8" transform="matrix(0.9811 -0.1934 0.1934 0.9811 -126.855 180.1417)" class="tick5" width="79.7" height="3.7"/>
			
				<rect x="821.9" y="747.1" transform="matrix(0.9811 -0.1933 0.1933 0.9811 -129.3104 180.7636)" class="tick5" width="79.7" height="12"/>
			
				<rect x="824.5" y="762.9" transform="matrix(0.9814 -0.1922 0.1922 0.9814 -131.1821 180.3956)" class="tick5" width="79.7" height="7"/>
			
				<rect x="827.4" y="776.3" transform="matrix(0.9811 -0.1933 0.1933 0.9811 -134.6339 182.3927)" class="tick5" width="79.7" height="9.5"/>
			<polygon class="tick5" points="909.2,788.1 908.5,784.5 830.3,799.9 831.1,803.5 			"/>
			
				<rect x="831.2" y="799" transform="matrix(0.981 -0.194 0.194 0.981 -138.733 184.1747)" class="tick5" width="79.7" height="2.9"/>
			
				<rect x="833" y="806.7" transform="matrix(0.9812 -0.193 0.193 0.9812 -139.8303 183.6642)" class="tick5" width="79.7" height="5.8"/>
			
				<rect x="849.9" y="893.5" transform="matrix(0.9813 -0.1927 0.1927 0.9813 -155.8269 188.201)" class="tick5" width="79.7" height="3.7"/>
			
				<rect x="852.6" y="902.7" transform="matrix(0.981 -0.1938 0.1938 0.981 -159.1587 190.1337)" class="tick5" width="79.7" height="12"/>
			
				<rect x="855.2" y="918.6" transform="matrix(0.9811 -0.1935 0.1935 0.9811 -161.5303 190.654)" class="tick5" width="79.7" height="7"/>
			
				<rect x="858.1" y="931.9" transform="matrix(0.9811 -0.1935 0.1935 0.9811 -164.2514 191.4187)" class="tick5" width="79.7" height="9.5"/>
			
				<rect x="835.3" y="816" transform="matrix(0.9812 -0.1932 0.1932 0.9812 -142.1442 184.575)" class="tick5" width="79.7" height="9.9"/>
			
				<rect x="837.6" y="830.6" transform="matrix(0.9812 -0.1931 0.1931 0.9812 -144.3207 185.1147)" class="tick5" width="79.7" height="4.5"/>
			
				<rect x="839.5" y="840.8" transform="matrix(0.9813 -0.1927 0.1927 0.9813 -145.9085 185.2707)" class="tick5" width="79.7" height="3.7"/>
			
				<rect x="842.2" y="850" transform="matrix(0.981 -0.1938 0.1938 0.981 -149.1469 187.1226)" class="tick5" width="79.7" height="12"/>
			
				<rect x="844.8" y="865.9" transform="matrix(0.9811 -0.1933 0.1933 0.9811 -151.3983 187.4474)" class="tick5" width="79.7" height="7"/>
			
				<rect x="847.7" y="879.2" transform="matrix(0.9812 -0.1932 0.1932 0.9812 -154.0455 188.1003)" class="tick5" width="79.7" height="9.5"/>
		</g>
		<g>
			
				<rect x="1049.9" y="865.1" transform="matrix(0.9811 -0.1933 0.1933 0.9811 -152.0346 220.695)" class="tick5" width="9.9" height="48.4"/>
			
				<rect x="1066.4" y="862.3" transform="matrix(0.9811 -0.1936 0.1936 0.9811 -151.3802 223.6776)" class="tick5" width="5.3" height="48.4"/>
			
				<rect x="1075.6" y="860.7" transform="matrix(0.9811 -0.1934 0.1934 0.9811 -150.8214 225.0327)" class="tick5" width="3.1" height="48.4"/>
			
				<rect x="1082.2" y="858.3" transform="matrix(0.9811 -0.1933 0.1933 0.9811 -150.0327 227.2556)" class="tick5" width="14.9" height="48.4"/>
			
				<rect x="1098.6" y="856.2" transform="matrix(0.9811 -0.1934 0.1934 0.9811 -149.5289 229.4336)" class="tick5" width="3.1" height="48.4"/>
			
				<rect x="1105.6" y="854.9" transform="matrix(0.9811 -0.1936 0.1936 0.9811 -149.2207 230.8594)" class="tick5" width="2.6" height="48.4"/>
			
				<rect x="1110.4" y="854" transform="matrix(0.9811 -0.1934 0.1934 0.9811 -148.8703 231.5257)" class="tick5" width="2" height="48.4"/>
			
				<rect x="1115.7" y="852.8" transform="matrix(0.9811 -0.1934 0.1934 0.9811 -148.5285 232.7586)" class="tick5" width="4" height="48.4"/>
			
				<rect x="1122.1" y="851.2" transform="matrix(0.9811 -0.1934 0.1934 0.9811 -148.0804 234.2491)" class="tick5" width="6.9" height="48.4"/>
			
				<rect x="1132.2" y="849.6" transform="matrix(0.9811 -0.1935 0.1935 0.9811 -147.6614 235.9263)" class="tick5" width="3.1" height="48.4"/>
			
				<rect x="1139.3" y="848.2" transform="matrix(0.9811 -0.1934 0.1934 0.9811 -147.2249 237.0986)" class="tick5" width="2.6" height="48.4"/>
			
				<rect x="1145.6" y="846.4" transform="matrix(0.9811 -0.1933 0.1933 0.9811 -146.626 238.7085)" class="tick5" width="8.3" height="48.4"/>
			
				<rect x="1156.6" y="844.6" transform="matrix(0.9811 -0.1934 0.1934 0.9811 -146.1685 240.61)" class="tick5" width="4.9" height="48.4"/>
			
				<rect x="1165.9" y="842.6" transform="matrix(0.9811 -0.1934 0.1934 0.9811 -145.5749 242.4894)" class="tick5" width="6.6" height="48.4"/>
			
				<rect x="1176.8" y="840.8" transform="matrix(0.9811 -0.1934 0.1934 0.9811 -145.0634 244.1928)" class="tick5" width="2.6" height="48.4"/>
			<polygon class="tick5" points="1188.3,887.7 1178.9,840.2 1177,840.6 1186.3,888.1 			"/>
			
				<rect x="1186.9" y="838.7" transform="matrix(0.9811 -0.1934 0.1934 0.9811 -144.4644 246.2792)" class="tick5" width="4" height="48.4"/>
			
				<rect x="1247" y="827" transform="matrix(0.9811 -0.1934 0.1934 0.9811 -141.082 257.5384)" class="tick5" width="2.6" height="48.4"/>
			<polygon class="tick5" points="1266.3,872.4 1256.9,824.8 1248.8,826.4 1258.1,874 			"/>
			<polygon class="tick5" points="1273.9,870.9 1264.5,823.3 1259.7,824.3 1269.1,871.8 			"/>
			
				<rect x="1273.6" y="821.4" transform="matrix(0.9811 -0.1934 0.1934 0.9811 -139.4326 262.9261)" class="tick5" width="6.6" height="48.4"/>
			
				<rect x="1193.4" y="837.2" transform="matrix(0.9811 -0.1934 0.1934 0.9811 -144.0177 247.7703)" class="tick5" width="6.9" height="48.4"/>
			
				<rect x="1203.5" y="835.5" transform="matrix(0.9811 -0.1933 0.1933 0.9811 -143.4558 249.1433)" class="tick5" width="3.1" height="48.4"/>
			
				<rect x="1210.5" y="834.2" transform="matrix(0.9811 -0.1935 0.1935 0.9811 -143.2296 250.7696)" class="tick5" width="2.6" height="48.4"/>
			<polygon class="tick5" points="1229.8,879.6 1220.4,832 1212.3,833.6 1221.7,881.2 			"/>
			
				<rect x="1227.9" y="830.5" transform="matrix(0.9811 -0.1934 0.1934 0.9811 -142.1057 254.132)" class="tick5" width="4.9" height="48.4"/>
			
				<rect x="1237.1" y="828.6" transform="matrix(0.9811 -0.1934 0.1934 0.9811 -141.5119 256.0076)" class="tick5" width="6.6" height="48.4"/>
		</g>
		<path class="tick4" d="M786,540.1c3.5,18,21,29.6,38.9,26.1c18-3.5,29.6-21,26.1-38.9c-3.5-18-21-29.6-38.9-26.1
			C794.1,504.7,782.4,522.1,786,540.1z"/>
		<g>
			<path class="tick1" d="M799.3,547.9c0.3-0.1,0.3-0.2,0.3-0.2l3.1-9.5l-5.5-1.3l0,11.4C797.1,548.3,799.2,547.9,799.3,547.9z"/>
			<path class="tick1" d="M802.2,535.5l-6.5-7.6c0,0-0.1-0.2-0.4-0.1c-0.1,0-2.1,0.4-2.1,0.4l4.4,10.6L802.2,535.5z"/>
			<path class="tick1" d="M798.7,539.4c0,0,31-3.4,36.2-4.4c5.1-1,9.9-4.1,9.4-6.4c-0.5-2.3-6-3.3-11.1-2.3c-5.2,1-35.1,9.6-35.1,9.6
				l-4,2.6L798.7,539.4z"/>
			<g>
				<path class="tick1" d="M829.1,528.1l-19.7-21.5c0,0-0.4-0.3-0.7-0.3c-0.2,0-2.3,0.4-2.3,0.4l12.9,29.3L829.1,528.1z"/>
				<path class="tick1" d="M821.6,521.4c0.3,1.5,5,0.4,5,0.4l-0.5-2.7C826,519.1,821.3,519.9,821.6,521.4z"/>
				<path class="tick1" d="M816.3,515.6c0.3,1.5,5,0.4,5,0.4l-0.5-2.7C820.7,513.4,816,514.2,816.3,515.6z"/>
			</g>
			<g>
				<path class="tick1" d="M819.9,562.6c0.3-0.1,0.5-0.5,0.5-0.5l10.1-27.4l-12-3.6l-0.9,32C817.6,563.1,819.6,562.7,819.9,562.6z"/>
				<path class="tick1" d="M826,543.8c0.3,1.5,5,0.4,5,0.4l-0.5-2.7C830.4,541.5,825.7,542.3,826,543.8z"/>
				<path class="tick1" d="M823.3,551.1c0.3,1.5,5,0.4,5,0.4l-0.5-2.7C827.7,548.9,823,549.6,823.3,551.1z"/>
			</g>
		</g>
		<line class="tick6" x1="193" y1="908.3" x2="781.9" y2="792.2"/>
		
			<rect x="475.7" y="675" transform="matrix(0.9811 -0.1935 0.1935 0.9811 -122.9012 132.6987)" class="tick4" width="284.4" height="41.2"/>
	</g>
</g>
</svg>
