<?xml version="1.0" encoding="utf-8"?>
<!-- Generator: Adobe Illustrator 27.0.1, SVG Export Plug-In . SVG Version: 6.00 Build 0)  -->
<svg version="1.1" id="Laag_1" xmlns="http://www.w3.org/2000/svg" xmlns:xlink="http://www.w3.org/1999/xlink" x="0px" y="0px"
	 viewBox="0 0 128 128" style="enable-background:new 0 0 128 128;" xml:space="preserve">
<style type="text/css">
	.st0{fill:#34A3DC;}
	.st1{fill:#FFFFFF;}
	.st2{fill-rule:evenodd;clip-rule:evenodd;fill:#34A3DC;}
</style>
<g>
	<path class="st0" d="M61.7,20.7c1.5,0,3,0,4.5,0c1.1,0.1,2.1,0.2,3.2,0.3c12.1,1.7,21.9,7.4,29.3,17.2c4.7,6.1,7.4,13.1,8.3,20.7
		c0.8,6.9,0,13.6-2.4,20.1c-3,8.2-8.1,14.9-15.2,20c-5.8,4.2-12.3,6.9-19.4,7.9c-1.3,0.2-2.6,0.3-3.9,0.4c-1.5,0-3,0-4.5,0
		c-1.2-0.1-2.5-0.2-3.7-0.4c-9-1.3-16.9-5-23.5-11.2c-6-5.6-10.2-12.4-12.3-20.4c-2.1-7.9-2.1-15.8,0.3-23.7c2.4-8,6.7-14.7,13-20.2
		c6.5-5.7,14-9.1,22.5-10.4C59.2,20.9,60.5,20.8,61.7,20.7z M55.1,66.9c-4.7-2.9-7.6-7.1-8.5-12.5C45.8,48.9,47.3,44,51,39.9
		c6.6-7.2,17.7-7.7,24.8-1.2c3.6,3.3,5.6,7.5,5.7,12.4c0.2,6.9-2.9,12.1-8.6,15.8C84.2,71,91,78.9,93.2,90.7
		c8.2-8.4,13.7-23.8,8.3-39.7c-5.7-16.4-21.7-27.9-40.2-26.7c-17.5,1.2-32.1,13.7-36,30.7c-2,8.6-1.1,16.9,2.4,25
		c1.7,3.9,4.1,7.5,7,10.7C37,78.9,43.8,71,55.1,66.9z M63.4,103.7c4.4,0,8.2-0.6,11.9-1.7c5.2-1.6,9.9-4.1,14.1-7.6
		c0.3-0.2,0.4-0.4,0.4-0.8c-0.2-3.6-1.1-6.9-2.7-10.1c-4.9-9.7-15.1-15.3-25.9-14.2c-12.5,1.3-22.3,11.5-23,24
		c0,0.6,0.1,0.9,0.5,1.2C46.1,100.6,54.5,103.6,63.4,103.7z M77.9,51.7c0-7.7-6.2-13.9-13.9-13.9c-7.7,0-13.9,6.2-13.9,13.9
		c0,7.5,6.2,13.8,13.6,13.9C71.2,65.8,77.9,59.7,77.9,51.7z"/>
	<path class="st1" d="M61.7,20.7c-1.3,0.1-2.5,0.3-3.8,0.4c-8.5,1.2-16,4.7-22.5,10.4c-6.2,5.5-10.6,12.2-13,20.2
		c-2.3,7.9-2.4,15.8-0.3,23.7c2.2,8,6.3,14.8,12.3,20.4c6.7,6.2,14.5,9.9,23.5,11.2c1.2,0.2,2.5,0.3,3.7,0.4c-14.7,0-29.3,0-44,0
		c0-28.9,0-57.8,0-86.7C32.4,20.7,47.1,20.7,61.7,20.7z"/>
	<path class="st0" d="M55.1,66.9C43.8,71,37,78.9,34.7,90.8c-3-3.2-5.3-6.8-7-10.7c-3.5-8.1-4.4-16.4-2.4-25
		c3.9-17,18.5-29.5,36-30.7c18.5-1.2,34.6,10.3,40.2,26.7c5.5,15.8-0.1,31.2-8.3,39.7C91,78.9,84.2,71,72.9,66.9
		c5.7-3.7,8.8-8.9,8.6-15.8c-0.1-4.9-2.1-9-5.7-12.4c-7.1-6.6-18.3-6.1-24.8,1.2c-3.7,4.1-5.2,9-4.4,14.5
		C47.5,59.8,50.4,63.9,55.1,66.9z"/>
	<path class="st1" d="M63.4,103.7c-8.9-0.1-17.3-3.1-24.7-9.1c-0.4-0.3-0.6-0.7-0.5-1.2c0.8-12.5,10.6-22.7,23-24
		c10.8-1.1,21,4.4,25.9,14.2c1.6,3.2,2.5,6.6,2.7,10.1c0,0.4-0.1,0.6-0.4,0.8c-4.2,3.5-8.9,6-14.1,7.6
		C71.6,103.1,67.9,103.7,63.4,103.7z"/>
	<path class="st1" d="M77.9,51.7c0,8-6.7,14.1-14.3,13.9c-7.4-0.1-13.6-6.4-13.6-13.9c0-7.7,6.3-14,13.9-13.9
		C71.7,37.8,77.9,44,77.9,51.7z"/>
</g>
<g>
	<g>
		<rect x="229.3" y="120.1" class="st2" width="45.3" height="7.9"/>
		<circle class="st2" cx="229.4" cy="112" r="6.6"/>
		<circle class="st2" cx="244.3" cy="112" r="6.6"/>
		<circle class="st2" cx="259.3" cy="112" r="6.6"/>
		<circle class="st2" cx="274.3" cy="112" r="6.6"/>
		<rect x="246.3" y="98.4" class="st2" width="11.2" height="3.6"/>
		<rect x="250" y="94.7" class="st2" width="3.7" height="11.4"/>
		<polygon class="st2" points="193.5,135.1 204.5,135.1 204.5,146.3 215.6,135.1 227.1,135.1 213.2,149.1 229.1,165.1 215.6,165.1 
			204.6,154 204.6,165.1 193.5,165.1 		"/>
		<g>
			<g>
				<polygon class="st2" points="240.7,157.7 240.7,135.2 229.5,135.2 229.5,157.7 229.5,165.1 240.7,165.1 259.3,165.1 
					259.3,157.7 				"/>
			</g>
		</g>
		<polygon class="st2" points="263.2,135.2 281.8,135.2 287.2,152 292.8,135.2 311.7,135.2 311.7,165 300.4,165 300.4,143 
			292.8,165 281.8,165 274.3,143 274.3,165 263.2,165 		"/>
	</g>
</g>
</svg>
