<?xml version="1.0" encoding="utf-8"?>
<!-- Generator: Adobe Illustrator 27.0.1, SVG Export Plug-In . SVG Version: 6.00 Build 0)  -->
<svg version="1.1" id="Laag_1" xmlns="http://www.w3.org/2000/svg" xmlns:xlink="http://www.w3.org/1999/xlink" x="0px" y="0px"
	 viewBox="0 0 128 128" style="enable-background:new 0 0 128 128;" xml:space="preserve">
<style type="text/css">
	.st0{fill:#34A3DC;}
	.st1{fill:#FFFFFF;}
	.st2{fill-rule:evenodd;clip-rule:evenodd;fill:#34A3DC;}
</style>
<g>
	<path class="st0" d="M107,58.9c-0.9-7.7-3.6-14.6-8.3-20.8C91.4,28.4,81.6,22.7,69.4,21c-1.1-0.1-2.1-0.2-3.2-0.3h-4.5
		c-1.3,0.1-2.5,0.2-3.8,0.4c-8.5,1.2-16,4.7-22.5,10.4c-6.2,5.5-10.6,12.2-13,20.2c-2.3,7.9-2.4,15.8-0.3,23.7
		c2.2,8,6.3,14.8,12.3,20.4c6.7,6.2,14.5,9.9,23.5,11.2c1.2,0.2,2.5,0.3,3.7,0.4h4.5c1.3-0.1,2.6-0.3,3.9-0.4
		c7.1-1,13.6-3.6,19.4-7.9c7-5.2,12.1-11.8,15.2-20C107.1,72.5,107.8,65.8,107,58.9z M50.1,51.7c0-7.7,6.2-14,13.9-13.9
		c7.7,0,13.9,6.2,13.9,13.9c0,8-6.7,14.1-14.3,13.9C56.3,65.5,50.1,59.2,50.1,51.7z M89.4,94.5c-4.2,3.5-8.9,6-14.1,7.6
		c-3.7,1.1-7.5,1.6-11.9,1.7c-8.9-0.1-17.3-3.1-24.7-9.1c-0.4-0.3-0.6-0.7-0.5-1.2c0.8-12.5,10.6-22.7,23-24
		c10.8-1.1,21,4.4,25.9,14.2c1.6,3.2,2.5,6.6,2.7,10.1C89.8,94,89.7,94.2,89.4,94.5z"/>
	<path class="st1" d="M89.8,93.7c0,0.4-0.1,0.6-0.4,0.8c-4.2,3.5-8.9,6-14.1,7.6c-3.7,1.1-7.5,1.6-11.9,1.7
		c-8.9-0.1-17.3-3.1-24.7-9.1c-0.4-0.3-0.6-0.7-0.5-1.2c0.8-12.5,10.6-22.7,23-24c10.8-1.1,21,4.4,25.9,14.2
		C88.7,86.7,89.6,90.1,89.8,93.7z"/>
	<path class="st1" d="M77.9,51.7c0,8-6.7,14.1-14.3,13.9c-7.4-0.2-13.6-6.4-13.5-13.9c0-7.7,6.2-14,13.9-13.9
		C71.7,37.8,77.9,44,77.9,51.7z"/>
</g>
<g>
	<g>
		<rect x="229.3" y="120.1" class="st2" width="45.3" height="7.9"/>
		<circle class="st2" cx="229.4" cy="112" r="6.6"/>
		<circle class="st2" cx="244.3" cy="112" r="6.6"/>
		<circle class="st2" cx="259.3" cy="112" r="6.6"/>
		<circle class="st2" cx="274.3" cy="112" r="6.6"/>
		<rect x="246.3" y="98.4" class="st2" width="11.2" height="3.6"/>
		<rect x="250" y="94.7" class="st2" width="3.7" height="11.4"/>
		<polygon class="st2" points="193.5,135.1 204.5,135.1 204.5,146.3 215.6,135.1 227.1,135.1 213.2,149.1 229.1,165.1 215.6,165.1 
			204.6,154 204.6,165.1 193.5,165.1 		"/>
		<g>
			<g>
				<polygon class="st2" points="240.7,157.7 240.7,135.2 229.5,135.2 229.5,157.7 229.5,165.1 240.7,165.1 259.3,165.1 
					259.3,157.7 				"/>
			</g>
		</g>
		<polygon class="st2" points="263.2,135.2 281.8,135.2 287.2,152 292.8,135.2 311.7,135.2 311.7,165 300.4,165 300.4,143 
			292.8,165 281.8,165 274.3,143 274.3,165 263.2,165 		"/>
	</g>
</g>
</svg>
