<?xml version="1.0" encoding="utf-8"?>
<!-- Generator: Adobe Illustrator 27.0.1, SVG Export Plug-In . SVG Version: 6.00 Build 0)  -->
<svg version="1.1" id="Laag_1" xmlns="http://www.w3.org/2000/svg" xmlns:xlink="http://www.w3.org/1999/xlink" x="0px" y="0px"
	 viewBox="0 0 55.4 42.4" style="enable-background:new 0 0 55.4 42.4;" xml:space="preserve">
<style type="text/css">
	.st0{fill:#00A1DE;}
</style>
<g>
	<g id="jdiJZD.tif">
		<g>
			<path class="st0" d="M12.3,9.3c7.6,2.4,15.1,2.5,22.7,0c0,1.1,0.1,2.2-0.1,3.3c0,0.4-0.7,0.8-1.1,1c-1.6,0.5-3.3,1-5,1.4
				c-1.1,0.3-2.2,0.3-3.3,0.4c-3.5,0.2-7,0-10.4-0.9c-0.4-0.1-0.8-0.3-1.3-0.4c-1.5-0.6-1.6-0.7-1.6-2.4
				C12.3,10.8,12.3,10.1,12.3,9.3z"/>
			<path class="st0" d="M24.4,9.8c-3.9-0.1-6.9-0.3-9.8-1.2c-0.6-0.2-1.2-0.5-1.8-0.8c-0.7-0.4-0.7-1,0-1.3c1-0.5,2-0.9,3-1.2
				c5.3-1.1,10.7-1.1,16,0.1c0.8,0.2,1.6,0.5,2.4,0.9c0.9,0.5,1,1.1,0,1.5c-1.5,0.6-3.1,1.1-4.8,1.4C27.6,9.6,25.6,9.7,24.4,9.8z"/>
			<path class="st0" d="M26,16.8c-0.9,1.4-1.9,2.8-2.8,4.2c-0.1,0.2-0.4,0.4-0.7,0.3c-2.9-0.1-5.9-0.4-8.6-1.4
				c-1.4-0.6-1.6-0.8-1.6-2.3c0-0.9,0-1.8,0-2.8C16.8,16.8,21.4,16.9,26,16.8z"/>
			<path class="st0" d="M12.3,26.8c3,1.4,6.1,1.7,9.2,2c0.3,0,0.7,0.3,0.8,0.5c0.5,1.3,1,2.6,1.5,4.1c-1.5-0.1-3,0-4.5-0.3
				c-2-0.3-3.9-0.8-5.8-1.3c-0.9-0.2-1.3-0.8-1.2-1.8C12.4,28.9,12.3,27.9,12.3,26.8z"/>
			<path class="st0" d="M22.4,22.8c-0.2,1.5-0.3,3-0.5,4.5c-3-0.2-6-0.4-8.8-1.7c-0.6-0.3-0.8-0.7-0.8-1.4c0-1.1,0-2.2,0-3.4
				C15.6,22.3,19,22.6,22.4,22.8z"/>
		</g>
	</g>
	<path class="st0" d="M35,14.9c-6.3,0-11.6,5.3-11.6,11.5c0,6.3,5.2,11.5,11.6,11.5c6.3,0,11.6-5.2,11.6-11.5
		C46.6,20.1,41.3,14.8,35,14.9z M40.6,32.5h-1.5v-8.8l-3.5,4.9h-1.2l-3.8-5.2v9.1h-1.5V20.1h1.5l4.4,6.3c0,0,0-0.1,0.1-0.1l4-6.2
		h1.5V32.5z"/>
</g>
</svg>
