<?xml version="1.0" encoding="utf-8"?>
<!-- Generator: Adobe Illustrator 27.0.1, SVG Export Plug-In . SVG Version: 6.00 Build 0)  -->
<svg version="1.1" id="Laag_1" xmlns="http://www.w3.org/2000/svg" xmlns:xlink="http://www.w3.org/1999/xlink" x="0px" y="0px"
	 viewBox="0 0 41.7 42.4" style="enable-background:new 0 0 41.7 42.4;" xml:space="preserve">
<style type="text/css">
	.st0{fill:#00A1DE;}
	.st1{fill:#FFFFFF;}
</style>
<circle class="st0" cx="20.9" cy="21.2" r="14.1"/>
<path class="st0" d="M23.3,3c0,0.6-0.6,1.1-1.4,1.4V9h-2V4.4C19,4.2,18.4,3.6,18.4,3c0-0.8,1.1-1.5,2.4-1.5
	C22.2,1.6,23.3,2.2,23.3,3z"/>
<path class="st0" d="M18.4,39.4c0-0.6,0.6-1.1,1.4-1.4v-4.6h2v4.6c0.8,0.2,1.4,0.8,1.4,1.4c0,0.8-1.1,1.5-2.4,1.5
	C19.5,40.9,18.4,40.2,18.4,39.4z"/>
<path class="st0" d="M39,23.7c-0.6,0-1.1-0.6-1.4-1.4h-4.6v-2h4.6c0.2-0.8,0.8-1.4,1.4-1.4c0.8,0,1.5,1.1,1.5,2.4
	C40.5,22.6,39.9,23.7,39,23.7z"/>
<path class="st0" d="M2.7,18.8c0.6,0,1.1,0.6,1.4,1.4h4.6v2H4c-0.2,0.8-0.8,1.4-1.4,1.4c-0.8,0-1.5-1.1-1.5-2.4
	C1.2,19.9,1.9,18.8,2.7,18.8z"/>
<path class="st0" d="M32,35.8c-0.4-0.4-0.4-1.2,0.1-2l-3.2-3.2l1.4-1.4l3.2,3.2c0.8-0.4,1.5-0.5,2,0c0.6,0.6,0.3,1.8-0.7,2.8
	C33.8,36.1,32.6,36.4,32,35.8z"/>
<path class="st0" d="M9.7,6.6c0.4,0.4,0.4,1.2-0.1,2l3.2,3.2l-1.4,1.4L8.2,10c-0.8,0.4-1.5,0.5-2,0C5.7,9.5,6,8.3,7,7.3
	C7.9,6.4,9.2,6.1,9.7,6.6z"/>
<path class="st0" d="M6.3,32.4c0.4-0.4,1.2-0.4,2,0.1l3.2-3.2l1.4,1.4l-3.2,3.2c0.4,0.8,0.5,1.5,0,2c-0.6,0.6-1.8,0.3-2.8-0.7
	C6,34.2,5.7,32.9,6.3,32.4z"/>
<path class="st0" d="M35.4,10.1c-0.4,0.4-1.2,0.4-2-0.1l-3.2,3.2l-1.4-1.4L32,8.6c-0.4-0.8-0.5-1.5,0-2c0.6-0.6,1.8-0.3,2.8,0.7
	C35.7,8.3,36,9.5,35.4,10.1z"/>
<g>
	<circle class="st1" cx="18.6" cy="18.6" r="2.6"/>
	<circle class="st1" cx="24" cy="24.7" r="1.7"/>
</g>
</svg>
