<?xml version="1.0" encoding="utf-8"?>
<!-- Generator: Adobe Illustrator 27.0.1, SVG Export Plug-In . SVG Version: 6.00 Build 0)  -->
<svg version="1.1" id="Laag_1" xmlns="http://www.w3.org/2000/svg" xmlns:xlink="http://www.w3.org/1999/xlink" x="0px" y="0px"
	 viewBox="0 0 128 128" style="enable-background:new 0 0 128 128;" xml:space="preserve">
<style type="text/css">
	.st0{fill-rule:evenodd;clip-rule:evenodd;fill:#34A3DC;}
</style>
<g>
	<rect x="40.7" y="48.3" class="st0" width="45.3" height="7.9"/>
	<circle class="st0" cx="40.8" cy="40.2" r="6.6"/>
	<circle class="st0" cx="55.7" cy="40.2" r="6.6"/>
	<circle class="st0" cx="70.7" cy="40.2" r="6.6"/>
	<circle class="st0" cx="85.7" cy="40.2" r="6.6"/>
	<rect x="57.7" y="26.6" class="st0" width="11.2" height="3.6"/>
	<rect x="61.4" y="22.9" class="st0" width="3.7" height="11.4"/>
	<polygon class="st0" points="4.9,63.3 15.9,63.3 15.9,74.5 27,63.3 38.5,63.3 24.6,77.3 40.5,93.3 27,93.3 16,82.2 16,93.3 
		4.9,93.3 	"/>
	<g>
		<g>
			<polygon class="st0" points="52.1,85.9 52.1,63.4 40.9,63.4 40.9,85.9 40.9,93.3 52.1,93.3 70.7,93.3 70.7,85.9 			"/>
		</g>
	</g>
	<polygon class="st0" points="74.6,63.4 93.2,63.4 98.6,80.2 104.2,63.4 123.1,63.4 123.1,93.2 111.8,93.2 111.8,71.2 104.2,93.2 
		93.2,93.2 85.7,71.2 85.7,93.2 74.6,93.2 	"/>
</g>
</svg>
