<?xml version="1.0" encoding="utf-8"?>
<!-- Generator: Adobe Illustrator 27.0.1, SVG Export Plug-In . SVG Version: 6.00 Build 0)  -->
<svg version="1.1" id="Laag_1" xmlns="http://www.w3.org/2000/svg" xmlns:xlink="http://www.w3.org/1999/xlink" x="0px" y="0px"
	 viewBox="0 0 225.3 225.9" style="enable-background:new 0 0 225.3 225.9;" xml:space="preserve">
<style type="text/css">
	.st0{fill:#479FD9;}
</style>
<g>
	<path class="st0" d="M143.1,225.4c0.7,0,1.3,0,2,0c8.6-13.8,17.1-27.6,25.8-41.5c7.4,5.2,13.8,11.1,23.4,10.6
		c0.6-9.7-5.7-16.1-10.5-23.5c14-8.7,27.7-17.2,41.4-25.7c0-0.7,0-1.3,0-2c-5.1-4.4-8.8-10.8-17.5-9c-14,2.9-28.1,5-42.3,7.2
		c-1.7,0.3-4.2-0.7-5.4-1.9c-12.1-12.8-24.1-25.8-36-38.8c-0.7-0.8-1.3-1.8-2.1-2.8c32.4-22,64.6-43.8,97.6-66.1
		c-4.8-3.9-8.8-7-12.6-10.4c-2.7-2.5-5.3-2.9-8.9-1.8c-38.2,10.9-76.4,21.6-114.6,32.4c-2.9,0.8-4.8,0.5-6.9-1.8
		C68,41.1,59.2,32.2,50.9,22.9C41.8,12.5,31.6,4.2,18.1,0.4c-2.7,0-5.3,0-8,0c-5.2,1.5-8.5,4.9-10,10c0,2.7,0,5.3,0,8
		C4,31.9,12.2,42.1,22.5,51.2c9.3,8.1,17.9,16.9,27.1,25.1c2.7,2.4,3,4.5,2,7.7c-10.9,38.2-21.6,76.4-32.3,114.6
		c-0.4,1.6-1.4,3.8-0.7,4.7c3.8,5.4,8,10.4,12.9,16.5c22.5-33.2,44.4-65.5,66.5-98.1c14.5,13.4,28.6,26.3,42.6,39.4
		c0.9,0.8,1.1,3,0.9,4.4c-2.3,14.3-4.9,28.5-7.1,42.8c-0.4,2.7-0.1,6.1,1.3,8.4C137.5,220.1,140.6,222.6,143.1,225.4z"/>
</g>
</svg>
