<?xml version="1.0" encoding="utf-8"?>
<!-- Generator: Adobe Illustrator 27.0.1, SVG Export Plug-In . SVG Version: 6.00 Build 0)  -->
<svg version="1.1" id="Laag_1" xmlns="http://www.w3.org/2000/svg" xmlns:xlink="http://www.w3.org/1999/xlink" x="0px" y="0px"
	 viewBox="0 0 128 128" style="enable-background:new 0 0 128 128;" xml:space="preserve">
<style type="text/css">
	.st0{fill:#CCCCCC;}
</style>
<g>
	<path class="st0" d="M83.8,117.1c2.7,0,7.4-2.4,9.6-4.9c3.1-3.7,6.2-7.5,8.7-11.7c1.4-2.4,2.4-5,3.6-7.5c0.3-0.7,0.1-0.9-0.5-1.2
		c-0.9-0.4-1.8-0.8-2.5-1.5c-1.8-1.7-3.7-3.5-5.2-5.4c-1.4-1.8-2.5-3.9-3.3-6c-1.1-3.2-1.5-6.6-1.3-10.1c0.2-2.8,1-5.4,2.2-7.8
		c2-4,4.9-7.3,8.3-10.2c0.1-0.1,0.1-0.5,0-0.6c-1.9-3.1-4.7-5.4-7.8-7.1c-2.6-1.4-5.5-2.3-8.6-2.6c-3-0.3-5.9-0.2-8.7,0.4
		c-3.1,0.7-6.1,2.2-9.2,3.1c-1.6,0.5-3.3,0.5-5,0.6c-2.7,0.2-5-1.4-7.3-2.5c-2.6-1.2-5.3-2-8.1-2.2c-3.7-0.3-7.3,0.1-10.8,1.8
		c-3.9,1.9-7.3,4.5-9.8,8c-1.5,2.1-2.7,4.4-3.8,6.7c-0.8,1.7-1.2,3.6-1.6,5.4c-0.3,1.6-0.5,3.3-0.5,5c-0.1,2.8-0.3,5.7,0.1,8.4
		c0.4,3.1,1.3,6.1,2.1,9.1c0.8,2.6,1.6,5.3,2.7,7.8c1.2,2.8,2.4,5.6,4.2,8.1c0.7,0.9,1.2,2,1.8,3c1.1,1.8,2.3,3.6,3.8,5.2
		c1,1.1,1.6,2.6,2.7,3.7c1.3,1.4,2.9,2.2,4.7,2.9c3.3,1.3,6.5,2.2,10.1,0.7c2.8-1.2,5.7-1.8,8.6-2.7c0.8-0.2,1.6-0.5,2.5-0.5
		c1,0,1.9,0.2,2.9,0.5c1.9,0.5,4.1,0.3,5.7,1.8c0.1,0.1,0.4,0.1,0.6,0.1c0.7,0.2,1.5,0.3,2.2,0.7C79,116.5,81.1,117.4,83.8,117.1z
		 M84.6,13.1c0-0.4,0-0.7,0-1.1c0.1-0.7-0.3-1.1-0.9-1.1c-0.9,0-1.9,0-2.7,0.3c-2.2,0.9-4.4,1.8-6.4,2.9c-1.9,1.1-3.7,2.4-4.9,4.2
		c-1.1,1.6-2,3.2-3.1,4.7c-2.3,3.4-2.8,7.4-3.2,11.3c-0.1,1.2,0.5,1.6,1.6,1.6c2.5,0,4.9-0.6,6.9-1.8c4.7-2.9,8.1-7,10.5-11.9
		C83.6,19.4,84.4,16.3,84.6,13.1z"/>
	<path class="st0" d="M83.8,117.1c-2.7,0.3-4.8-0.6-6.9-1.7c-0.7-0.3-1.4-0.5-2.2-0.7c-0.2-0.1-0.5,0-0.6-0.1
		c-1.6-1.6-3.8-1.3-5.7-1.8c-0.9-0.2-1.9-0.5-2.9-0.5c-0.8,0-1.7,0.3-2.5,0.5c-2.9,0.9-5.9,1.5-8.6,2.7c-3.6,1.5-6.7,0.6-10.1-0.7
		c-1.8-0.7-3.4-1.5-4.7-2.9c-1-1.1-1.6-2.6-2.7-3.7c-1.5-1.6-2.7-3.4-3.8-5.2c-0.6-1-1.1-2.1-1.8-3c-1.8-2.5-3-5.3-4.2-8.1
		c-1.1-2.5-2-5.1-2.7-7.8c-0.9-3-1.7-6-2.1-9.1c-0.4-2.8-0.2-5.6-0.1-8.4c0-1.7,0.2-3.4,0.5-5c0.4-1.8,0.8-3.7,1.6-5.4
		c1.1-2.3,2.4-4.6,3.8-6.7c2.5-3.6,5.9-6.1,9.8-8c3.5-1.7,7.1-2.1,10.8-1.8c2.8,0.2,5.5,1,8.1,2.2c2.3,1.1,4.6,2.7,7.3,2.5
		c1.7-0.1,3.4-0.2,5-0.6c3.1-0.9,6.1-2.4,9.2-3.1c2.8-0.6,5.8-0.8,8.7-0.4c3.1,0.4,5.9,1.2,8.6,2.6c3.1,1.7,5.9,4,7.8,7.1
		c0.1,0.2,0.1,0.5,0,0.6c-3.5,2.8-6.4,6.1-8.3,10.2c-1.2,2.5-2,5.1-2.2,7.8c-0.2,3.4,0.2,6.8,1.3,10.1c0.8,2.1,1.9,4.2,3.3,6
		c1.5,2,3.4,3.7,5.2,5.4c0.7,0.6,1.6,1,2.5,1.5c0.6,0.3,0.8,0.6,0.5,1.2c-1.2,2.5-2.2,5.1-3.6,7.5c-2.4,4.2-5.5,8-8.7,11.7
		C91.3,114.7,86.5,117.1,83.8,117.1z"/>
	<path class="st0" d="M84.6,13.1c-0.1,3.2-0.9,6.3-2.3,9.2c-2.4,4.9-5.7,9.1-10.5,11.9c-2.1,1.3-4.5,1.8-6.9,1.8
		c-1.1,0-1.7-0.4-1.6-1.6c0.3-4,0.8-7.9,3.2-11.3c1.1-1.6,2-3.2,3.1-4.7c1.3-1.8,3.1-3.1,4.9-4.2c2-1.2,4.2-2.1,6.4-2.9
		c0.8-0.3,1.8-0.3,2.7-0.3c0.7,0,1,0.4,0.9,1.1C84.5,12.3,84.6,12.7,84.6,13.1z"/>
</g>
</svg>
